<svg width="40" height="40" viewBox="0 0 40 40" fill="none" xmlns="http://www.w3.org/2000/svg">
<path d="M20 25C22.7614 25 25 22.7614 25 20C25 17.2386 22.7614 15 20 15C17.2386 15 15 17.2386 15 20C15 22.7614 17.2386 25 20 25Z" fill="currentColor" fill-opacity="0.44"/>
<path d="M33.334 6.66658H28.0507L25.984 4.41659C25.3673 3.73325 24.4673 3.33325 23.534 3.33325H16.4673C15.534 3.33325 14.634 3.73325 14.0007 4.41659L11.9507 6.66658H6.66732C4.83398 6.66658 3.33398 8.16658 3.33398 9.99992V29.9999C3.33398 31.8332 4.83398 33.3332 6.66732 33.3332H33.334C35.1673 33.3332 36.6673 31.8332 36.6673 29.9999V9.99992C36.6673 8.16658 35.1673 6.66658 33.334 6.66658ZM20.0007 28.3332C15.4007 28.3332 11.6673 24.5999 11.6673 19.9999C11.6673 15.3999 15.4007 11.6666 20.0007 11.6666C24.6007 11.6666 28.334 15.3999 28.334 19.9999C28.334 24.5999 24.6007 28.3332 20.0007 28.3332Z" fill="currentColor" fill-opacity="0.44"/>
</svg>
