<svg width="20" height="23" viewBox="0 0 20 23" fill="none" xmlns="http://www.w3.org/2000/svg">
<path fill-rule="evenodd" clip-rule="evenodd" d="M2.14874 1.5036C2.83749 0.934046 3.75625 0.571045 4.6875 0.571045H16.5625C18.4613 0.571045 20 2.0756 20 3.93216V19.2099C20 21.0665 18.4613 22.571 16.5625 22.571H4.6875C3.75625 22.571 2.83749 22.208 2.14874 21.6385C1.45999 21.0677 0.919991 20.2183 0.919991 19.2099C0.919991 18.7039 1.33999 18.2933 1.85749 18.2933C2.37499 18.2933 2.79499 18.7039 2.79499 19.2099C2.79499 19.5509 2.98 19.9237 3.36 20.2391C3.74125 20.5532 4.23875 20.7377 4.6875 20.7377H16.5625C17.425 20.7377 18.125 20.0533 18.125 19.2099V3.93216C18.125 3.08882 17.425 2.40438 16.5625 2.40438H4.6875C4.23875 2.40438 3.74125 2.5877 3.36 2.90303C2.98 3.21714 2.79499 3.59116 2.79499 3.93216C2.79499 4.43816 2.37499 4.84882 1.85749 4.84882C1.33999 4.84882 0.919991 4.43816 0.919991 3.93216C0.919991 2.92382 1.45999 2.07438 2.14874 1.5036ZM7.17251 8.86994C7.17251 7.06961 8.55125 5.45993 10.4313 5.45993H10.8187C12.6987 5.45993 14.0775 7.06961 14.0775 8.86994V9.28549C14.0775 10.629 14.3463 12.4294 15.0018 13.6021C15.4 14.3145 15.625 15.14 15.625 16.0041C15.625 16.8474 14.9687 17.6822 13.9787 17.6822H7.27125C6.28125 17.6822 5.625 16.8474 5.625 16.0041C5.625 15.14 5.84995 14.3145 6.24819 13.6021C6.90372 12.4294 7.17251 10.629 7.17251 9.28549V8.86994ZM10.4313 7.29327C9.74875 7.29327 9.04751 7.91661 9.04751 8.86994V9.28549C9.04751 10.2388 9.74875 10.8622 10.4313 10.8622H10.8187C11.5012 10.8622 12.2025 10.2388 12.2025 9.28549V8.86994C12.2025 7.91661 11.5012 7.29327 10.8187 7.29327H10.4313ZM0 7.90438C0 7.39838 0.42 6.98771 0.9375 6.98771H2.8125C3.33 6.98771 3.75 7.39838 3.75 7.90438C3.75 8.41038 3.33 8.82104 2.8125 8.82104H0.9375C0.42 8.82104 0 8.41038 0 7.90438ZM0 11.571C0 11.065 0.42 10.6544 0.9375 10.6544H2.8125C3.33 10.6544 3.75 11.065 3.75 11.571C3.75 12.077 3.33 12.4877 2.8125 12.4877H0.9375C0.42 12.4877 0 12.077 0 11.571ZM9.09651 13.341C7.55804 14.0644 8.92494 15.8488 10.625 15.8488C12.3251 15.8488 13.692 14.0644 12.1535 13.341C11.8366 13.192 11.4926 13.1111 11.1412 13.1111H10.1088C9.75741 13.1111 9.41345 13.192 9.09651 13.341ZM0 15.2377C0 14.7317 0.42 14.321 0.9375 14.321H2.8125C3.33 14.321 3.75 14.7317 3.75 15.2377C3.75 15.7437 3.33 16.1544 2.8125 16.1544H0.9375C0.42 16.1544 0 15.7437 0 15.2377Z" fill="#F13838"/>
</svg>
