<svg width="20" height="22" viewBox="0 0 20 22" fill="none" xmlns="http://www.w3.org/2000/svg">
<path fill-rule="evenodd" clip-rule="evenodd" d="M9.77245 0.7358C9.19189 1.12028 9.48813 1.94984 10.1125 2.25806C10.4498 2.42452 10.8481 2.40497 11.1954 2.26071C11.504 2.13254 11.8384 2.0625 12.1875 2.0625H12.8125C14.3663 2.0625 15.625 3.44712 15.625 5.15625V5.84375C15.625 6.96542 15.0821 7.94775 14.2696 8.49021C13.8161 8.79292 13.4295 9.23951 13.3349 9.77643C13.2537 10.2377 13.1259 10.6806 12.9573 11.099C12.8471 11.3724 13.0389 11.6875 13.3337 11.6875C15.98 11.6875 18.125 14.047 18.125 16.9579C18.125 17.0844 18.0313 17.1875 17.9163 17.1875H16.8065C16.1955 17.1875 15.7522 17.7629 15.8405 18.3675C15.9114 18.8522 16.3111 19.25 16.801 19.25H17.9163C19.0675 19.25 20 18.2243 20 16.9579C20 15.5689 19.6487 14.2698 19.0385 13.1625C18.0184 11.3112 17.5 7.95755 17.5 5.84375V5.15625C17.5 2.30862 15.4013 0 12.8125 0H12.1875C11.304 0 10.4778 0.268684 9.77245 0.7358ZM7.1875 2.75C4.59875 2.75 2.5 5.05862 2.5 7.90625V8.59375C2.5 10.7076 1.98158 14.0612 0.961455 15.9125C0.351307 17.0198 0 18.3189 0 19.7079C0 20.9743 0.93249 22 2.08374 22H12.9163C14.0675 22 15 20.9743 15 19.7079C15 18.3189 14.6487 17.0198 14.0385 15.9125C13.0184 14.0612 12.5 10.7076 12.5 8.59375V7.90625C12.5 5.05862 10.4013 2.75 7.8125 2.75H7.1875ZM4.375 7.90625C4.375 6.19712 5.63375 4.8125 7.1875 4.8125H7.8125C9.36625 4.8125 10.625 6.19712 10.625 7.90625V8.59375C10.625 10.3029 9.36625 11.6875 7.8125 11.6875H7.1875C5.63375 11.6875 4.375 10.3029 4.375 8.59375V7.90625ZM1.875 19.7079C1.875 16.797 4.02001 14.4375 6.66626 14.4375H8.33374C10.98 14.4375 13.125 16.797 13.125 19.7079C13.125 19.8344 13.0313 19.9375 12.9163 19.9375H2.08374C1.96874 19.9375 1.875 19.8344 1.875 19.7079Z" fill="#BC08DA"/>
</svg>
