<svg width="21" height="22" viewBox="0 0 21 22" fill="none" xmlns="http://www.w3.org/2000/svg">
<path fill-rule="evenodd" clip-rule="evenodd" d="M4.69954 1.22222C5.10097 0.499889 5.9624 0 6.95954 0H13.3881C14.3853 0 15.2467 0.499889 15.6481 1.22222H16.2453C18.4153 1.22222 20.1738 2.72678 20.1738 4.58333V18.6389C20.1738 20.4954 18.4153 22 16.2453 22H4.1024C1.9324 22 0.173828 20.4954 0.173828 18.6389V4.58333C0.173828 2.72678 1.9324 1.22222 4.1024 1.22222H4.69954ZM4.45954 3.05556H4.1024C3.11669 3.05556 2.31669 3.74 2.31669 4.58333V18.6389C2.31669 19.4822 3.11669 20.1667 4.1024 20.1667H16.2453C17.231 20.1667 18.031 19.4822 18.031 18.6389V4.58333C18.031 3.74 17.231 3.05556 16.2453 3.05556H15.8881V3.97222C15.8881 4.47822 15.4081 4.88889 14.8167 4.88889H5.53097C4.93954 4.88889 4.45954 4.47822 4.45954 3.97222V3.05556ZM13.7453 3.05556V2.13889C13.7453 1.97022 13.5853 1.83333 13.3881 1.83333H6.95954C6.7624 1.83333 6.6024 1.97022 6.6024 2.13889V3.05556H13.7453ZM4.45954 8.86111C4.45954 8.35511 4.93954 7.94444 5.53097 7.94444H14.8167C15.4081 7.94444 15.8881 8.35511 15.8881 8.86111C15.8881 9.36711 15.4081 9.77778 14.8167 9.77778H5.53097C4.93954 9.77778 4.45954 9.36711 4.45954 8.86111ZM4.45954 12.5278C4.45954 12.0218 4.93954 11.6111 5.53097 11.6111H14.8167C15.4081 11.6111 15.8881 12.0218 15.8881 12.5278C15.8881 13.0338 15.4081 13.4444 14.8167 13.4444H5.53097C4.93954 13.4444 4.45954 13.0338 4.45954 12.5278ZM4.45954 16.1944C4.45954 15.6884 4.93954 15.2778 5.53097 15.2778H10.4467C11.0381 15.2778 11.5181 15.6884 11.5181 16.1944C11.5181 16.7004 11.0381 17.1111 10.4467 17.1111H5.53097C4.93954 17.1111 4.45954 16.7004 4.45954 16.1944Z" fill="#7393E6"/>
</svg>
