<svg width="20" height="22" viewBox="0 0 20 22" fill="none" xmlns="http://www.w3.org/2000/svg">
<path d="M10.0003 1.8335C6.77533 1.8335 4.16699 4.70266 4.16699 8.25016C4.16699 12.0727 7.85033 17.3435 9.36699 19.351C9.70033 19.791 10.3087 19.791 10.642 19.351C12.1503 17.3435 15.8337 12.0727 15.8337 8.25016C15.8337 4.70266 13.2253 1.8335 10.0003 1.8335ZM10.0003 10.5418C8.85033 10.5418 7.91699 9.51516 7.91699 8.25016C7.91699 6.98516 8.85033 5.9585 10.0003 5.9585C11.1503 5.9585 12.0837 6.98516 12.0837 8.25016C12.0837 9.51516 11.1503 10.5418 10.0003 10.5418Z" fill="#056676"/>
</svg>
