<svg width="20" height="23" viewBox="0 0 20 23" fill="none" xmlns="http://www.w3.org/2000/svg">
<path d="M11.8766 22.4324H8.12478C7.64046 22.4324 7.2214 22.0727 7.11776 21.5678L6.69825 19.4954C6.13862 19.2337 5.60797 18.9065 5.11608 18.5197L3.22263 19.1632C2.76087 19.3203 2.25889 19.1129 2.01668 18.6649L0.136628 15.1988C-0.102926 14.7505 -0.0203943 14.1851 0.335559 13.8359L1.80435 12.4059C1.73755 11.7581 1.73755 11.1045 1.80435 10.4567L0.335559 9.02997C-0.0209186 8.68058 -0.103483 8.11447 0.136628 7.66597L2.01256 4.19767C2.25476 3.74964 2.75674 3.54222 3.21851 3.69937L5.11196 4.34287C5.36352 4.14394 5.6254 3.96032 5.89634 3.79287C6.15644 3.63634 6.42412 3.4946 6.69825 3.36827L7.11879 1.29807C7.22193 0.793139 7.64053 0.432917 8.12478 0.432373H11.8766C12.3609 0.432917 12.7795 0.793139 12.8826 1.29807L13.3073 3.36937C13.5967 3.50524 13.8786 3.65876 14.1515 3.82917C14.406 3.98627 14.652 4.15851 14.8884 4.34507L16.7829 3.70157C17.2444 3.54501 17.7457 3.75235 17.9878 4.19987L19.8638 7.66817C20.1033 8.11641 20.0208 8.68184 19.6648 9.03107L18.196 10.4611C18.2628 11.1089 18.2628 11.7625 18.196 12.4103L19.6648 13.8403C20.0208 14.1895 20.1033 14.7549 19.8638 15.2032L17.9878 18.6715C17.7457 19.119 17.2444 19.3263 16.7829 19.1698L14.8884 18.5263C14.6487 18.7147 14.3996 18.8891 14.1422 19.0488C13.8719 19.2159 13.5932 19.3668 13.3073 19.5009L12.8826 21.5678C12.7791 22.0723 12.3606 22.4319 11.8766 22.4324ZM5.48611 16.0843L6.33131 16.7443C6.52184 16.894 6.72043 17.0318 6.92604 17.1568C7.11951 17.2763 7.31872 17.385 7.52284 17.4824L8.48451 17.9323L8.95555 20.2324H11.0479L11.519 17.9312L12.4806 17.4813C12.9005 17.2837 13.2989 17.0381 13.6691 16.7487L14.5153 16.0887L16.619 16.8037L17.6652 14.8699L16.0336 13.2826L16.149 12.1694C16.1997 11.6825 16.1997 11.1911 16.149 10.7042L16.0336 9.59097L17.6662 8.00037L16.619 6.06547L14.5153 6.78047L13.6691 6.12047C13.2988 5.82976 12.9004 5.5823 12.4806 5.38237L11.519 4.93247L11.0479 2.63237H8.95555L8.48244 4.93357L7.52284 5.38237C7.31855 5.47812 7.11932 5.58572 6.92604 5.70467C6.72169 5.82933 6.52415 5.96632 6.3344 6.11497L5.48818 6.77497L3.38549 6.05997L2.33724 8.00037L3.96888 9.58547L3.85344 10.6998C3.80273 11.1867 3.80273 11.6781 3.85344 12.165L3.96888 13.2782L2.33724 14.8655L3.38343 16.7993L5.48611 16.0843ZM9.99659 15.8324C7.71956 15.8324 5.87367 13.8624 5.87367 11.4324C5.87367 9.00232 7.71956 7.03237 9.99659 7.03237C12.2736 7.03237 14.1195 9.00232 14.1195 11.4324C14.1167 13.8612 12.2724 15.8293 9.99659 15.8324ZM9.99659 9.23237C8.87041 9.23359 7.95356 10.1991 7.93743 11.4008C7.92129 12.6026 8.81183 13.5957 9.93751 13.6314C11.0632 13.6671 12.0074 12.732 12.058 11.5314V11.9714V11.4324C12.058 10.2173 11.1351 9.23237 9.99659 9.23237Z" fill="#092791"/>
</svg>
