<svg width="21" height="22" viewBox="0 0 21 22" fill="none" xmlns="http://www.w3.org/2000/svg">
<path fill-rule="evenodd" clip-rule="evenodd" d="M4.1024 1.83333C3.11611 1.83333 2.31669 2.51778 2.31669 3.36111V18.6389C2.31669 19.4822 3.11611 20.1667 4.1024 20.1667H16.2453C17.2315 20.1667 18.031 19.4822 18.031 18.6389V7.42867C18.031 7.02411 17.8428 6.63545 17.508 6.34945L12.7531 2.28066C12.4181 1.99466 11.964 1.83333 11.4904 1.83333H4.1024ZM0.173828 3.36111C0.173828 1.50456 1.93269 0 4.1024 0H11.4904C12.5323 0 13.5315 0.354436 14.2683 0.98388L19.0231 5.05267C19.76 5.68334 20.1738 6.53767 20.1738 7.42867V18.6389C20.1738 20.4954 18.415 22 16.2453 22H4.1024C1.93269 22 0.173828 20.4954 0.173828 18.6389V3.36111ZM4.45954 8.85746C4.45954 8.35146 4.93926 7.94079 5.53097 7.94079H14.8167C15.4084 7.94079 15.8881 8.35146 15.8881 8.85746C15.8881 9.36346 15.4084 9.77412 14.8167 9.77412H5.53097C4.93926 9.77412 4.45954 9.36346 4.45954 8.85746ZM4.45954 12.5241C4.45954 12.0181 4.93926 11.6075 5.53097 11.6075H14.8167C15.4084 11.6075 15.8881 12.0181 15.8881 12.5241C15.8881 13.0301 15.4084 13.4408 14.8167 13.4408H5.53097C4.93926 13.4408 4.45954 13.0301 4.45954 12.5241ZM4.45954 16.1908C4.45954 15.6848 4.93926 15.2741 5.53097 15.2741H10.447C11.0387 15.2741 11.5184 15.6848 11.5184 16.1908C11.5184 16.6968 11.0387 17.1075 10.447 17.1075H5.53097C4.93926 17.1075 4.45954 16.6968 4.45954 16.1908Z" fill="#19D7CC"/>
</svg>
